<?xml version="1.0" encoding="UTF-8"?>
<svg version="1.1" xmlns="http://www.w3.org/2000/svg" width="512" height="512">
<path d="M0 0 C2.94643534 2.0655954 5.4819496 4.43616686 8 7 C10.85155031 5.69048977 12.48697072 4.55537456 14.875 2.375 C18 0 18 0 21.125 -0.4375 C23.94384026 -0.00854605 25.68778143 0.34841531 28 2 C29.59177021 4.2284783 30.01314313 6.06425528 30.5625 8.75 C29.70358731 13.71260665 26.47233006 16.50995397 23 20 C24.29344689 22.81550299 25.38903091 24.41749659 27.5625 26.75 C29.98300769 29.48682403 29.99833206 29.89658777 30.0625 33.875 C30.09487217 35.97926426 30.09487217 35.97926426 31 38 C33.7530726 40.33511438 36.65345079 42.13110385 39.73828125 44.00390625 C48.27184564 49.22624326 55.71741007 56.18410361 63 63 C63.93714844 63.87140625 64.87429688 64.7428125 65.83984375 65.640625 C77.89046424 77.11046865 87.81159151 90.54370526 96 105 C96.33338379 105.58458984 96.66676758 106.16917969 97.01025391 106.77148438 C100.87793491 113.60299601 104.22935192 120.37917643 106.9375 127.75 C111.17490444 138.76494234 118.79528107 148.25845202 129.625 153.25 C138.34339254 156.98208382 146.25300107 156.33310418 155.375 154.5 C174.37139423 151.07428958 191.43212813 152.15741719 208 163 C218.31162849 170.28280032 226.1597382 181.97580244 229.41015625 194.18359375 C231.36329858 206.82081269 231.62519855 220.31903214 226 232 C225.45158447 233.15072998 225.45158447 233.15072998 224.89208984 234.32470703 C220.86539534 242.71796097 216.64031347 251.00595727 212.19921875 259.1875 C203.05486384 276.04964378 197.30096603 291.66616372 202 311 C205.88441763 323.13691579 213.15194898 332.14068303 221.36743164 341.60351562 C233.39019422 355.48158466 243.95072936 368.80384853 243.28125 388.21875 C241.95767079 401.30747774 236.88116043 411.72754609 227.5390625 420.9296875 C220.5349721 426.64071505 213.03631053 429.78649873 204.5625 432.8125 C203.48162109 433.21919922 202.40074219 433.62589844 201.28710938 434.04492188 C194.94115337 436.33469981 189.75376333 437.7338093 183 437 C181.29413425 435.37347684 179.6222454 433.70993434 178 432 C174.74961511 432.05392193 174.74961511 432.05392193 172 433 C172.0825 434.0725 172.165 435.145 172.25 436.25 C172 440 172 440 170.41015625 442.09375 C167.43539598 444.44655877 164.84020935 445.25272724 161.1875 446.25 C160.00542969 446.58515625 158.82335937 446.9203125 157.60546875 447.265625 C153.91526452 448.01725923 150.75323676 448.29917105 147 448 C144.0625 445.625 144.0625 445.625 142 443 C142 442.34 142 441.68 142 441 C140.64455078 441.433125 140.64455078 441.433125 139.26171875 441.875 C138.08222656 442.24625 136.90273438 442.6175 135.6875 443 C134.51574219 443.37125 133.34398437 443.7425 132.13671875 444.125 C129 445 129 445 126 445 C125.938125 446.0725 125.87625 447.145 125.8125 448.25 C124.82375417 452.81344228 123.84638327 453.51265912 120 456 C116.77490234 456.94140625 116.77490234 456.94140625 113.0859375 457.5625 C112.41089676 457.67930618 111.73585602 457.79611237 111.0403595 457.91645813 C108.82101265 458.29445165 106.59864783 458.6482608 104.375 459 C102.81807821 459.25652997 101.26119401 459.51328814 99.7043457 459.77026367 C74.04292988 463.92988887 47.9906698 467.10794401 21.9765625 467.203125 C20.68470032 467.21022995 19.39283813 467.2173349 18.06182861 467.22465515 C13.91621247 467.24429652 9.77065863 467.24960513 5.625 467.25 C4.91695473 467.25014729 4.20890945 467.25029457 3.47940826 467.25044632 C-17.49760985 467.24640368 -38.19208294 467.02203717 -59 464 C-60.69169752 463.7609879 -62.38343169 463.52223518 -64.07519531 463.28369141 C-191.85475589 445.09695041 -191.85475589 445.09695041 -215.4375 413.8125 C-226.87210542 395.13823316 -226.77477242 367.92125667 -221.87353516 347.33081055 C-220.85690962 343.46537435 -219.5527181 339.78565591 -218.08203125 336.0703125 C-214.35089609 327.57363625 -214.35089609 327.57363625 -215.3046875 318.8515625 C-217.70459921 316.01983277 -220.30697466 313.55228814 -223 311 C-241.38544893 286.2578799 -252.71791551 256.3907188 -257 226 C-257.10022461 225.34257812 -257.20044922 224.68515625 -257.30371094 224.0078125 C-264.00868648 173.99489882 -249.46592456 123.53719886 -219.25 83.5625 C-188.06427322 43.20024189 -142.48211136 17.86819991 -92.0625 11.1875 C-62.77755176 7.66982383 -34.07619592 11.18365629 -6 20 C-6.45068848 19.51418457 -6.90137695 19.02836914 -7.36572266 18.52783203 C-13.10922463 12.25976045 -13.10922463 12.25976045 -13 8 C-10.35641749 1.25886461 -7.32087747 -1.08012946 0 0 Z " fill="#BC52B4" transform="translate(264,45)"/>
<path d="M0 0 C2.94643534 2.0655954 5.4819496 4.43616686 8 7 C10.85155031 5.69048977 12.48697072 4.55537456 14.875 2.375 C18 0 18 0 21.125 -0.4375 C23.94384026 -0.00854605 25.68778143 0.34841531 28 2 C29.59177021 4.2284783 30.01314313 6.06425528 30.5625 8.75 C29.70358731 13.71260665 26.47233006 16.50995397 23 20 C24.29344689 22.81550299 25.38903091 24.41749659 27.5625 26.75 C29.98300769 29.48682403 29.99833206 29.89658777 30.0625 33.875 C30.09487217 35.97926426 30.09487217 35.97926426 31 38 C33.7530726 40.33511438 36.65345079 42.13110385 39.73828125 44.00390625 C48.27184564 49.22624326 55.71741007 56.18410361 63 63 C63.93714844 63.87140625 64.87429688 64.7428125 65.83984375 65.640625 C84.05188311 82.97493937 101.71752032 107.64547778 109 132 C108.67 132.99 108.34 133.98 108 135 C107.31035156 134.09378906 106.62070312 133.18757812 105.91015625 132.25390625 C92.79356375 115.16778773 78.875445 102.63810376 57 99 C45.34804191 97.6987055 35.01759685 99.02340295 24 103 C13.55048991 106.73308357 13.55048991 106.73308357 8 106 C4.018837 104.0094185 1.45771305 101.47042129 -1.375 98.125 C-10.03494137 87.93014561 -20.30901217 83.78300374 -33.46484375 82.32421875 C-51.60109785 80.88010452 -66.92673035 80.22611189 -81.4375 92.57421875 C-86.58402118 97.4461542 -91.28983332 102.71076536 -96 108 C-97.43094136 109.5964147 -98.86408737 111.19074277 -100.30078125 112.78198242 C-101.55134374 114.1683453 -102.79541194 115.56055836 -104.0390625 116.953125 C-106.66972803 119.69907866 -108.41694553 120.24159899 -112.125 120.5 C-117.00902793 120.38389791 -119.19923512 118.90171212 -122.62109375 115.53515625 C-123.40613281 114.69855469 -124.19117188 113.86195313 -125 113 C-126.15754284 111.79035574 -127.31509581 110.58072117 -128.47265625 109.37109375 C-137.80495133 99.53277982 -137.80495133 99.53277982 -141.15625 95.234375 C-145.64519309 89.79438465 -153.07174359 85.29639154 -160 84 C-172.26907095 82.88237208 -182.73669043 83.951529 -192.875 91.6875 C-199.47792582 97.95140029 -203.49379095 106.3673107 -204.30517578 115.39575195 C-204.34639306 125.00801915 -202.96884692 133.84735317 -200.875 143.1875 C-200.55492179 144.66783093 -200.23626059 146.14846889 -199.91894531 147.62939453 C-199.27329712 150.63185367 -198.61932818 153.63230239 -197.95800781 156.63134766 C-197.0505364 160.75347333 -196.17375683 164.88131986 -195.3046875 169.01171875 C-192.53690118 182.21777327 -192.53690118 182.21777327 -189.40234375 195.33984375 C-181.34197617 227.23743282 -187.01403909 257.98988664 -199 288 C-199.42571289 289.07088867 -199.85142578 290.14177734 -200.29003906 291.24511719 C-202.04335987 295.64818392 -203.79814123 300.05030557 -205.58666992 304.43920898 C-207.94391154 310.23774843 -210.09099109 316.03820842 -212 322 C-228.41544289 314.49462977 -239.89314919 284.30437817 -246.05126953 268.26123047 C-251.15012801 254.43863406 -254.88506535 240.58390853 -257 226 C-257.1016748 225.33822754 -257.20334961 224.67645508 -257.30810547 223.99462891 C-264.0054106 173.98569629 -249.46299832 123.53332754 -219.25 83.5625 C-188.06427322 43.20024189 -142.48211136 17.86819991 -92.0625 11.1875 C-62.77755176 7.66982383 -34.07619592 11.18365629 -6 20 C-6.45068848 19.51418457 -6.90137695 19.02836914 -7.36572266 18.52783203 C-13.10922463 12.25976045 -13.10922463 12.25976045 -13 8 C-10.35641749 1.25886461 -7.32087747 -1.08012946 0 0 Z " fill="#C0DADB" transform="translate(264,45)"/>
<path d="M0 0 C1.0612207 0.01200439 2.12244141 0.02400879 3.21582031 0.03637695 C20.09731375 0.33810733 34.54171409 1.97115601 47.28125 14.03125 C49.48101705 16.35853977 51.43961942 18.81200795 53.4375 21.3125 C57.50105469 24.49744827 60.3531854 24.61065425 65.4375 24.3125 C69.1622781 23.32690297 69.1622781 23.32690297 72.875 21.9375 C91.83521056 15.17588164 109.01302863 15.69928179 127.58984375 23.6640625 C139.09009215 29.43838077 149.75137776 39.80464931 156.6875 50.625 C158.63717154 53.61913843 160.90996944 55.78865389 163.4375 58.3125 C164.98028798 60.14488982 166.52193113 61.97824408 168.0625 63.8125 C173.96602373 70.3700069 181.5371795 74.80994651 190.50244141 75.46289062 C195.78778849 75.47721729 200.64262975 74.85140724 205.8125 73.8125 C224.80889423 70.38678958 241.86962813 71.46991719 258.4375 82.3125 C268.74912849 89.59530032 276.5972382 101.28830244 279.84765625 113.49609375 C281.80079858 126.13331269 282.06269855 139.63153214 276.4375 151.3125 C275.88908447 152.46322998 275.88908447 152.46322998 275.32958984 153.63720703 C271.30289534 162.03046097 267.07781347 170.31845727 262.63671875 178.5 C253.49236384 195.36214378 247.73846603 210.97866372 252.4375 230.3125 C256.32191763 242.44941579 263.58944898 251.45318303 271.80493164 260.91601562 C283.82769422 274.79408466 294.38822936 288.11634853 293.71875 307.53125 C292.39517079 320.61997774 287.31866043 331.04004609 277.9765625 340.2421875 C270.9724721 345.95321505 263.47381053 349.09899873 255 352.125 C253.91912109 352.53169922 252.83824219 352.93839844 251.72460938 353.35742188 C245.354038 355.65608165 240.21349241 356.93408801 233.4375 356.3125 C230.875 354.8125 230.875 354.8125 229.4375 352.3125 C228.48827499 345.66792491 228.48827499 345.66792491 231.171875 341.8359375 C236.28864305 337.07951805 244.23926043 335.80773893 250.73632812 333.79492188 C259.4307808 330.97981256 267.1568563 327.72005126 271.9375 319.5 C275.89045069 311.61569944 275.77177633 302.41063699 273.91015625 293.90234375 C271.17594696 287.495316 265.39128421 282.13483686 260.83935547 276.92333984 C242.95709598 256.37524717 230.35674973 235.5636782 232.23193359 207.52880859 C234.05693238 187.85263402 246.25446593 169.14423564 255.46484375 152.11328125 C261.69213792 140.4518713 264.87749319 129.09506528 261.59375 115.9296875 C257.59743662 105.37185958 251.09233038 98.43436648 241.015625 93.46484375 C230.99455617 88.98572965 220.82901412 89.3993411 210.25 91.8125 C194.41173069 95.26062321 179.724434 94.47110784 165.625 86 C155.66615008 79.24220898 149.11330365 69.87390855 141.97802734 60.36816406 C132.12985921 47.31219679 122.78239559 38.99585675 106.4375 35.3125 C96.9622072 34.36694064 88.66207033 35.5618299 79.71875 38.55859375 C70.21593017 41.73563562 61.56155459 44.58785299 51.75 40.75 C45.85871617 37.76747169 41.08441454 33.55413369 37.1875 28.25 C31.47948199 21.15303094 21.52016876 18.55852662 12.8671875 17.5625 C-0.28047203 16.60412846 -10.1965364 16.41405416 -20.5 25.3125 C-26.85811844 31.38070423 -32.93507699 37.87165486 -38.49609375 44.6796875 C-42.57846214 49.67658184 -46.7393035 52.54915013 -52.5625 55.3125 C-53.5525 55.8075 -53.5525 55.8075 -54.5625 56.3125 C-63.85328257 57.12544348 -71.80053699 56.9963488 -79.5625 51.3125 C-82.46212315 48.83088821 -85.03286852 46.16698941 -87.5625 43.3125 C-88.12324219 42.6834375 -88.68398437 42.054375 -89.26171875 41.40625 C-91.84979686 38.46223574 -94.40788025 35.49504778 -96.94140625 32.50390625 C-104.6644357 23.55875731 -104.6644357 23.55875731 -115.48046875 19.94921875 C-122.06330557 19.66300845 -126.37543752 20.1840217 -131.5625 24.3125 C-136.07743848 29.4993745 -137.84045842 33.66587085 -137.75 40.69335938 C-137.39920218 45.59356647 -136.20062548 50.2945993 -135.0625 55.0625 C-134.51291197 57.44628973 -133.96482192 59.83042515 -133.41796875 62.21484375 C-133.27155441 62.84823166 -133.12514008 63.48161957 -132.97428894 64.13420105 C-131.20509772 71.80573493 -129.55288489 79.5024686 -127.89697266 87.19909668 C-127.38806744 89.56426821 -126.877846 91.92915178 -126.3671875 94.29394531 C-125.43045691 98.63306941 -124.49606447 102.97269374 -123.5625 107.3125 C-123.41813507 107.98313477 -123.27377014 108.65376953 -123.12503052 109.34472656 C-122.71573498 111.24665205 -122.30707311 113.14871387 -121.8984375 115.05078125 C-121.66817871 116.12239502 -121.43791992 117.19400879 -121.20068359 118.2980957 C-113.4000459 155.14372448 -122.88835503 187.34703129 -136.22499084 221.32939148 C-141.92804663 235.88148309 -147.55577053 250.48352949 -152.125 265.4375 C-152.36460449 266.21246826 -152.60420898 266.98743652 -152.85107422 267.78588867 C-158.35068945 286.50391344 -157.09326769 306.87105189 -148.5625 324.3125 C-148.27503906 325.01503906 -147.98757812 325.71757812 -147.69140625 326.44140625 C-146.28257035 328.77646645 -145.03119163 329.2347503 -142.5625 330.3125 C-141.39054784 331.18040797 -140.22442318 332.05621081 -139.0625 332.9375 C-114.32514962 349.23179937 -79.17548298 353.56078171 -50.5625 358.3125 C-49.35352051 358.5182666 -48.14454102 358.7240332 -46.89892578 358.93603516 C-32.42580062 361.39562984 -17.92616434 363.62192569 -3.375 365.5625 C-2.18422852 365.72564697 -0.99345703 365.88879395 0.23339844 366.05688477 C49.19035797 372.36622132 101.22316795 369.90077672 149.57275391 360.24365234 C168.46690391 356.53166204 168.46690391 356.53166204 173.25097656 359.3996582 C175.90309492 362.12344325 176.4334922 364.1962739 176.5625 367.9375 C175.20315935 372.01552196 173.98893849 372.97113192 170.4375 375.3125 C167.21240234 376.25390625 167.21240234 376.25390625 163.5234375 376.875 C162.84839676 376.99180618 162.17335602 377.10861237 161.4778595 377.22895813 C159.25851265 377.60695165 157.03614783 377.9607608 154.8125 378.3125 C153.25557821 378.56902997 151.69869401 378.82578814 150.1418457 379.08276367 C124.48042988 383.24238887 98.4281698 386.42044401 72.4140625 386.515625 C71.12220032 386.52272995 69.83033813 386.5298349 68.49932861 386.53715515 C64.35371247 386.55679652 60.20815863 386.56210513 56.0625 386.5625 C55.35445473 386.56264729 54.64640945 386.56279457 53.91690826 386.56294632 C32.93989015 386.55890368 12.24541706 386.33453717 -8.5625 383.3125 C-10.25419752 383.0734879 -11.94593169 382.83473518 -13.63769531 382.59619141 C-141.41725589 364.40945041 -141.41725589 364.40945041 -165 333.125 C-175.9650281 315.21761684 -176.53907046 288.5409588 -171.9375 268.6875 C-171.2297326 265.86686271 -170.42436941 263.08963476 -169.5625 260.3125 C-169.32692383 259.54196289 -169.09134766 258.77142578 -168.84863281 257.97753906 C-166.43873095 250.21229972 -163.7247902 242.61329944 -160.67822266 235.07568359 C-157.00506013 225.97877911 -153.4476933 216.83530795 -149.88720703 207.69384766 C-148.76288402 204.82398521 -147.61867806 201.96353288 -146.46484375 199.10546875 C-138.32951966 178.59848355 -135.35353066 158.31574202 -136.5625 136.3125 C-136.62268311 135.20865967 -136.62268311 135.20865967 -136.68408203 134.08251953 C-137.42597981 122.95405285 -140.33951218 112.13264837 -142.9140625 101.3203125 C-145.42105605 90.76127103 -147.65267062 80.14367539 -149.88085938 69.52294922 C-150.5112756 66.55376105 -151.16554675 63.59105171 -151.828125 60.62890625 C-155.12342122 45.61203028 -157.25064205 31.4503685 -148.9375 17.6875 C-143.55736618 10.09435547 -135.71326291 4.32614444 -126.5625 2.3125 C-113.38789772 0.79821598 -103.40642583 2.86988634 -92.86328125 11.140625 C-90.19883723 13.65578777 -87.85086546 16.35865818 -85.46020508 19.13232422 C-82.30973184 22.75174092 -79.02991465 26.24816078 -75.75 29.75 C-75.08291016 30.46865234 -74.41582031 31.18730469 -73.72851562 31.92773438 C-73.08978516 32.61029297 -72.45105469 33.29285156 -71.79296875 33.99609375 C-70.93288208 34.91733032 -70.93288208 34.91733032 -70.05541992 35.85717773 C-67.66426011 38.18811864 -65.69045445 38.58581328 -62.4375 38.8125 C-57.35047254 38.7472817 -54.98551121 36.83622868 -51.4453125 33.3515625 C-48.41016597 30.0645366 -45.47311583 26.71008425 -42.5625 23.3125 C-30.62384943 9.4005559 -19.15927956 -0.33487827 0 0 Z " fill="#4D241E" transform="translate(213.5625,125.6875)"/>
<path d="M0 0 C20.77719701 4.93970339 42.1338106 7.5008826 63.375 9.5 C65.21457275 9.67329834 65.21457275 9.67329834 67.09130859 9.85009766 C82.44967347 11.20373714 97.76870291 11.79724073 113.18359375 11.92578125 C115.10519318 11.94380295 115.10519318 11.94380295 117.06561279 11.96218872 C125.03965792 12.03573943 125.03965792 12.03573943 133.01391602 12.07592773 C136.94576047 12.0879287 140.87697745 12.13140905 144.80859375 12.17578125 C146.01059921 12.17387283 147.21260468 12.17196442 148.45103455 12.16999817 C156.66714172 12.29137429 156.66714172 12.29137429 160.75024414 14.53979492 C162.83566937 17.17400095 163.13590002 19.32145851 163.26171875 22.65234375 C161.98976986 26.15509531 159.7204379 28.08155593 156.5 29.75 C152.30182929 30.48034977 148.15808357 30.402183 143.90625 30.34375 C142.66345779 30.3450592 141.42066559 30.34636841 140.14021301 30.34771729 C136.78657389 30.3434964 133.4349606 30.31575543 130.08169937 30.27384949 C127.99451261 30.24993713 125.90744632 30.2349063 123.82015991 30.22277832 C102.33860339 30.0935656 81.00199542 29.31964566 59.63830566 26.9810791 C57.43780538 26.74327885 55.23631095 26.51805951 53.03417969 26.29589844 C35.57702497 24.52570585 18.38467702 22.15855771 1.23632812 18.34814453 C-1.45649774 17.75950933 -4.15484856 17.21559072 -6.859375 16.68359375 C-8.48971577 16.35221339 -10.11993243 16.02022161 -11.75 15.6875 C-12.47123047 15.54957031 -13.19246094 15.41164062 -13.93554688 15.26953125 C-18.37769412 14.32347859 -21.28680106 12.98128449 -24.5 9.75 C-25.5625 6.3125 -25.5625 6.3125 -25.5 2.75 C-19.49615045 -6.77334756 -9.30262078 -2.34675263 0 0 Z " fill="#4D241F" transform="translate(195.5,236.25)"/>
<path d="M0 0 C5.24050113 3.40750073 8.67828425 7.83970007 10.58203125 13.83203125 C12.14254554 21.92628761 11.75484188 29.56967922 7.625 36.7734375 C3.30266142 42.69587257 -1.92529885 47.08547788 -9.2109375 48.3984375 C-17.01318998 49.47874938 -23.60620128 48.95818146 -30.1875 44.375 C-36.14364434 39.46504468 -40.53296993 34.10871355 -41.8125 26.3515625 C-42.46667307 18.14714192 -40.9472296 11.65580889 -36 5 C-26.41142344 -5.45611444 -12.20672221 -7.56124898 0 0 Z M-22 16.625 C-24.25250083 19.79444072 -24.25250083 19.79444072 -24.0625 23.125 C-22.83752006 26.43965161 -21.85371874 27.91755659 -19 30 C-16.14710302 31.25329784 -16.14710302 31.25329784 -13 31 C-9.48399797 29.15336625 -9.48399797 29.15336625 -7 26 C-6.08333333 22.5 -6.08333333 22.5 -7 19 C-9.58629804 15.31648461 -11.06975126 14.18272743 -15.5 13.3125 C-19.20453392 13.73658874 -19.20453392 13.73658874 -22 16.625 Z " fill="#4B231C" transform="translate(465,51)"/>
<path d="M0 0 C2.94643534 2.0655954 5.4819496 4.43616686 8 7 C10.85155031 5.69048977 12.48697072 4.55537456 14.875 2.375 C18 0 18 0 21.125 -0.4375 C23.94384026 -0.00854605 25.68778143 0.34841531 28 2 C29.59177021 4.2284783 30.01314313 6.06425528 30.5625 8.75 C29.70358731 13.71260665 26.47233006 16.50995397 23 20 C24.30783654 22.85401712 25.41623653 24.44596771 27.625 26.8125 C30 30 30 30 30.5625 33.625 C30 37 30 37 28.5 39.375 C25.07440064 41.60163958 22.03528058 42.7237188 18 42 C15.67823734 40.33859375 13.80329858 38.55726294 11.859375 36.46875 C10.12962962 34.77323576 10.12962962 34.77323576 7.9765625 35.08984375 C5.7328197 36.12302966 4.37413624 37.32568162 2.625 39.0625 C0.1203336 41.28827421 -0.79641535 41.96008144 -4.1875 42.625 C-7.61525126 41.8632775 -8.83912068 40.7211073 -11 38 C-12.49986273 35.00027454 -12.5048832 33.34485121 -12 30 C-9.90517892 27.38671071 -7.53294512 25.184019 -5 23 C-6.29893896 20.1906669 -7.4726726 18.4581558 -9.5625 16.0625 C-13 11.74358974 -13 11.74358974 -13 8 C-10.35641749 1.25886461 -7.32087747 -1.08012946 0 0 Z " fill="#4C251E" transform="translate(264,45)"/>
<path d="M0 0 C3.67805103 2.62189167 6.76761849 5.82071823 9.92749023 9.03540039 C11.43433681 10.55930101 12.97477539 12.04209351 14.52148438 13.52539062 C22.64908627 21.53504877 22.64908627 21.53504877 22.7890625 26.52734375 C21.79804146 30.88881756 20.69576233 32.48373629 17 35 C13.5425721 35.78281386 11.3871644 35.85780971 8.30078125 33.94921875 C6.07296277 32.07901104 4.05764614 30.05764614 2 28 C0.73227477 26.81187213 -0.53743498 25.62585991 -1.80859375 24.44140625 C-3.18643351 23.12921689 -4.56271959 21.8153943 -5.9375 20.5 C-6.61296875 19.87150146 -7.2884375 19.24300293 -7.984375 18.59545898 C-11.20032846 15.44868782 -12.82768136 13.64354385 -14.015625 9.20703125 C-13.99731655 5.44922285 -13.38510406 3.87857386 -11 1 C-7.42253687 -1.81086389 -4.25467664 -0.95181103 0 0 Z " fill="#4B231D" transform="translate(82,43)"/>
<path d="M0 0 C1.9375 1.125 1.9375 1.125 3 3 C3.9608631 6.70618623 4.5233579 8.95265503 2.78149414 12.43847656 C0.918777 15.11678659 -1.06670742 17.30955385 -3.37890625 19.609375 C-4.21744141 20.44597656 -5.05597656 21.28257813 -5.91992188 22.14453125 C-6.79197266 23.00433594 -7.66402344 23.86414063 -8.5625 24.75 C-9.43841797 25.62527344 -10.31433594 26.50054687 -11.21679688 27.40234375 C-18.72174198 34.85529154 -18.72174198 34.85529154 -23.3125 35.375 C-27 35 -27 35 -29.9375 33 C-32.00336973 29.99509858 -32.84964322 28.05368542 -32.7512207 24.39404297 C-30.95539493 18.67097908 -25.40567872 14.58412317 -21.125 10.5625 C-20.08026208 9.54934718 -19.03727287 8.53438783 -17.99609375 7.51757812 C-8.30925117 -1.87298694 -8.30925117 -1.87298694 0 0 Z " fill="#4C241C" transform="translate(58,43)"/>
<path d="M0 0 C3.05631025 0.87211544 4.22440411 1.75209504 5.81469727 4.51782227 C6.53133773 8.42677026 6.80928816 10.83666677 4.76782227 14.28735352 C2.89892511 16.49823959 0.87857179 18.48579766 -1.18530273 20.51782227 C-2.38582246 21.78358763 -3.58348583 23.05206522 -4.77905273 24.32250977 C-6.10046717 25.70155496 -7.42340295 27.07914387 -8.74780273 28.45532227 C-9.38468018 29.13087158 -10.02155762 29.8064209 -10.67773438 30.50244141 C-13.57007962 33.44269919 -15.45508114 35.29044788 -19.44702148 36.53344727 C-23.09731293 36.51261821 -25.15433007 35.51550879 -28.18530273 33.51782227 C-30.31549697 30.92454233 -30.18999976 29.60495591 -30.00756836 26.22070312 C-28.67708976 20.22920405 -24.4346922 16.76485779 -20.20483398 12.59033203 C-18.68993397 11.08492449 -17.21941748 9.54394344 -15.74780273 7.99633789 C-7.12993558 -0.79148751 -7.12993558 -0.79148751 0 0 Z " fill="#4B231C" transform="translate(98.185302734375,-0.517822265625)"/>
<path d="M0 0 C5.33530913 1.4357263 8.95147842 5.82443655 12.65991211 9.72436523 C14.13519972 11.27063642 15.64668355 12.77278206 17.16772461 14.27392578 C25.31389614 22.56195072 25.31389614 22.56195072 25.63647461 29.70947266 C24.63647461 32.52197266 24.63647461 32.52197266 22.63647461 34.70947266 C19.16782796 36.18685919 16.89898013 37.06539447 13.21166992 36.02587891 C10.16877074 34.47038854 8.21010856 32.63910316 5.80834961 30.20947266 C4.48577148 28.87916016 4.48577148 28.87916016 3.13647461 27.52197266 C2.22897461 26.59384766 1.32147461 25.66572266 0.38647461 24.70947266 C-0.53649414 23.78134766 -1.45946289 22.85322266 -2.41040039 21.89697266 C-10.26335106 13.95163433 -10.26335106 13.95163433 -10.67602539 8.83447266 C-10.61253778 5.92462404 -10.41651832 4.80163427 -8.92602539 2.20947266 C-5.75917109 0.35570429 -3.64926502 -0.06694549 0 0 Z " fill="#4B231C" transform="translate(36.363525390625,-0.70947265625)"/>
<path d="M0 0 C3.18639792 2.77788536 3.91137036 4.36851383 4.5 8.5625 C3.90268344 12.66905136 3.17869175 13.44356439 0 16 C-3.20703125 17.265625 -3.20703125 17.265625 -6.8125 18.25 C-7.99457031 18.58515625 -9.17664063 18.9203125 -10.39453125 19.265625 C-14.07861881 20.01601336 -17.25240931 20.27609062 -21 20 C-24.69186542 17.40783917 -25.82883761 15.95850936 -26.625 11.5 C-25.82957491 7.0456195 -24.43227234 5.88496405 -21 3 C-17.6953125 1.6015625 -17.6953125 1.6015625 -14.125 0.625 C-12.36542969 0.11839844 -12.36542969 0.11839844 -10.5703125 -0.3984375 C-6.69284617 -1.0517524 -3.82283448 -0.87538719 0 0 Z " fill="#4D241F" transform="translate(432,473)"/>
<path d="M0 0 C2.87846666 2.98734483 4.60520168 5.50746871 4.83984375 9.71484375 C4.04653707 14.71267585 2.47896115 17.93473744 -1.59765625 21.02734375 C-5.88078182 22.25109391 -9.4674519 22.25130027 -13.53515625 20.40234375 C-16.84663088 17.82675237 -18.40697237 15.86793478 -19.66015625 11.83984375 C-19.8225725 7.69822947 -18.76363823 5.26819013 -16.78515625 1.65234375 C-12.17032089 -2.81362596 -5.44305718 -4.10909131 0 0 Z " fill="#4B231C" transform="translate(381.78515625,21.34765625)"/>
<path d="M0 0 C4.07390532 1.33327811 5.42613937 2.35369882 7.4375 6.125 C7.51904726 10.12081592 6.94255321 11.59188828 4.1875 14.5 C1.12495857 16.30968357 -0.09655086 16.90483856 -3.5625 16.125 C-6.82850019 13.65735541 -8.34503791 12.16881805 -9.1875 8.125 C-8.06349817 2.72979122 -5.54235257 0.19446851 0 0 Z " fill="#512624" transform="translate(319.5625,217.875)"/>
<path d="M0 0 C2.4375 1.5625 2.4375 1.5625 4 4 C4.5625 7.5 4.5625 7.5 4 11 C1.41830549 13.96135546 -0.18881135 14.86756104 -4.0625 15.5 C-7 15 -7 15 -9.375 13.4375 C-11.62340519 10.06489221 -11.56783945 7.97487617 -11 4 C-8.11188513 -0.5054592 -5.11821063 -0.73117295 0 0 Z " fill="#4E2520" transform="translate(225,207)"/>
</svg>
